<svg width="216" height="94" viewBox="0 0 216 94" fill="none" xmlns="http://www.w3.org/2000/svg">
<g clip-path="url(#clip0_47_2)">
<path d="M98.6406 47.6409H107.791V92.3209H98.6406V47.6409Z" fill="white"/>
<path d="M117 32.5009H126.15V53.0009C127.993 50.8225 130.285 49.0689 132.87 47.8609C135.532 46.753 138.397 46.2148 141.28 46.2809C144.369 46.2605 147.431 46.866 150.28 48.0609C153.012 49.2061 155.487 50.8856 157.56 53.0009C159.638 55.1452 161.276 57.6763 162.38 60.4509C163.559 63.4084 164.15 66.5673 164.12 69.7509C164.147 72.9858 163.571 76.1974 162.42 79.2209C161.373 81.9966 159.793 84.541 157.77 86.7109C155.766 88.8107 153.353 90.4782 150.68 91.6109C147.834 92.8152 144.77 93.4211 141.68 93.3909C138.587 93.4545 135.516 92.8472 132.68 91.6109C129.929 90.2695 127.51 88.3327 125.6 85.9409V92.3409H117V32.5009ZM146.14 83.8209C147.861 83.104 149.416 82.0422 150.71 80.7009C152.015 79.3247 153.035 77.7035 153.71 75.9309C155.163 71.9837 155.163 67.648 153.71 63.7009C153.037 61.9152 152.018 60.2804 150.71 58.8909C149.385 57.5212 147.778 56.4565 146 55.7709C144.088 55.0279 142.051 54.6579 140 54.6809C138.04 54.6649 136.097 55.0494 134.29 55.8109C132.562 56.55 131.006 57.6396 129.72 59.0109C128.422 60.4119 127.404 62.0479 126.72 63.8309C125.977 65.7673 125.607 67.8269 125.63 69.9009C125.609 71.9566 125.996 73.9962 126.77 75.9009C127.487 77.6778 128.543 79.298 129.88 80.6709C131.207 82.0249 132.791 83.0994 134.54 83.8309C138.277 85.3374 142.453 85.3374 146.19 83.8309L146.14 83.8209Z" fill="white"/>
<path d="M214.79 78.6409C214.042 80.8032 212.948 82.8297 211.55 84.6409C210.156 86.439 208.489 88.008 206.61 89.2909C204.702 90.5837 202.617 91.5942 200.42 92.2909C198.131 93.0217 195.742 93.3895 193.34 93.3809C190.111 93.4003 186.909 92.7959 183.91 91.6009C181.06 90.4727 178.461 88.794 176.26 86.6609C174.097 84.5565 172.376 82.0404 171.2 79.2609C169.974 76.3532 169.355 73.2261 169.38 70.0709C169.354 66.9064 169.959 63.7685 171.16 60.8409C172.298 58.0555 173.977 55.5234 176.1 53.3909C179.449 50.1203 183.684 47.9035 188.281 47.0149C192.877 46.1262 197.633 46.6046 201.96 48.3909C204.736 49.5484 207.251 51.2511 209.357 53.3982C211.463 55.5453 213.117 58.0932 214.22 60.8909C215.419 63.8543 216.023 67.0243 216 70.2209C216 70.9809 216 71.6109 215.92 72.1209C215.85 72.7071 215.744 73.2882 215.6 73.8609H179.09C179.346 75.4451 179.896 76.9678 180.71 78.3509C181.503 79.7122 182.549 80.9102 183.79 81.8809C185.056 82.8659 186.479 83.63 188 84.1409C189.631 84.6863 191.34 84.96 193.06 84.9509C195.442 85.0158 197.8 84.4574 199.9 83.3309C201.888 82.1863 203.569 80.5771 204.8 78.6409H214.79ZM206.85 65.6409C206.206 62.5384 204.488 59.7624 202 57.8009C199.353 55.8633 196.128 54.8767 192.85 55.0009C191.176 54.9881 189.509 55.2343 187.91 55.7309C186.464 56.1964 185.111 56.9104 183.91 57.8409C182.718 58.7738 181.702 59.9116 180.91 61.2009C180.044 62.5879 179.402 64.1033 179.01 65.6909L206.85 65.6409Z" fill="white"/>
<path d="M108.49 39.1809H108.85C108.911 38.851 108.941 38.5162 108.94 38.1809C108.941 36.7054 108.365 35.288 107.336 34.2307C106.306 33.1735 104.905 32.56 103.43 32.5209C103.297 32.9757 103.23 33.4471 103.23 33.9209C103.233 35.3151 103.788 36.6514 104.774 37.6373C105.759 38.6232 107.096 39.1782 108.49 39.1809Z" fill="white"/>
<path d="M108.491 40.0009C107.574 40.0135 106.667 39.816 105.839 39.4235C105.01 39.031 104.283 38.4539 103.712 37.7365C103.142 37.0191 102.743 36.1805 102.547 35.285C102.351 34.3896 102.362 33.4611 102.581 32.5709C101.577 32.6956 100.626 33.087 99.8246 33.7042C99.0235 34.3214 98.4025 35.142 98.026 36.0805C97.6496 37.0191 97.5314 38.0414 97.6839 39.0411C97.8364 40.0408 98.2539 40.9813 98.8931 41.765C99.5322 42.5486 100.37 43.1467 101.318 43.4971C102.267 43.8474 103.292 43.9372 104.287 43.7571C105.282 43.5771 106.211 43.1337 106.977 42.4731C107.742 41.8125 108.317 40.9588 108.641 40.0009H108.491Z" fill="white"/>
<path d="M89.91 47.6809C86.3142 47.697 82.7346 47.1986 79.28 46.2009C80.82 31.2009 79.67 12.6909 70.95 4.43085C67.54 1.19085 61.49 -1.93915 52 1.49085C43.31 4.65085 39.08 12.0009 40.72 21.0509C42.21 29.3009 48.48 38.4509 57.48 45.5509C60.927 48.2689 64.6668 50.5933 68.63 52.4809C68.216 54.8128 67.6719 57.1197 67 59.3909C64 69.2609 58.26 81.0709 52.62 83.6909C52.0276 84.0009 51.3707 84.1678 50.7021 84.1783C50.0335 84.1887 49.3718 84.0423 48.77 83.7509C45.95 82.5409 44.69 78.3409 43.22 70.5109C38.5 45.3309 26.54 39.6709 22.62 37.8109C13.88 33.6809 4.89 34.8409 0 36.0009V46.1009C1.24 45.6709 10.32 42.7309 18.45 46.5809C21.57 48.0709 29.86 52.0009 33.66 72.3009C35.46 81.8709 37.43 89.4509 44.92 92.6709C46.7198 93.4627 48.6637 93.8747 50.63 93.8809C52.7364 93.8705 54.8149 93.3995 56.72 92.5009C68 87.2509 74.55 68.0009 76.29 62.2009C76.84 60.3709 77.37 58.2009 77.84 55.8409C81.8067 56.8944 85.8959 57.4157 90 57.3909L89.91 47.6809ZM69.91 42.2809C59.31 36.3609 51.62 26.7309 50.28 19.2809C49.48 14.8109 51.04 12.1309 55.34 10.5709C56.7532 10.016 58.2523 9.71148 59.77 9.67085C60.6003 9.64286 61.4276 9.78451 62.2014 10.0871C62.9751 10.3897 63.679 10.847 64.27 11.4309C69.43 16.3709 70.83 29.7109 69.91 42.2809Z" fill="white"/>
</g>
<defs>
<clipPath id="clip0_47_2">
<rect width="216" height="94" fill="white"/>
</clipPath>
</defs>
</svg>
